<svg xmlns="http://www.w3.org/2000/svg" id="header-img" enable-background="new 0 0 512 512" height="50" viewBox="0 0 512 512" width="50"><path d="m512 113.994v-30h-48.335v-35.659h-35.659v-48.335h-30v48.335h-32.803v-48.335h-30v48.335h-32.802v-48.335h-30v48.335h-32.803v-48.335h-30v48.335h-32.802v-48.335h-30v48.335h-32.803v-48.335h-30v48.335h-35.658v35.659h-48.335v30h48.335v32.803h-48.335v30h48.335v32.802h-48.335v30h48.335v32.803h-48.335v30h48.335v32.802h-48.335v30h48.335v32.803h-48.335v30h48.335v35.659h35.659v48.334h30v-48.335h32.803v48.335h30v-48.335h32.802v48.335h30v-48.335h32.803v48.335h30v-48.335h32.802v48.335h30v-48.335h32.803v48.335h30v-48.335h35.659v-35.659h48.334v-30h-48.335v-32.803h48.335v-30h-48.335v-32.802h48.335v-30h-48.335v-32.803h48.335v-30h-48.335v-32.802h48.335v-30h-48.335v-32.803h48.335zm-78.335 319.671h-355.33v-355.33h355.33z"/><path d="m397 115h-212v15c0 30.327-24.673 55-55 55h-15v212h282zm-94.599 82.5c8.782 0 15.927 7.145 15.927 15.927 0 8.783-7.145 15.928-15.927 15.928s-15.927-7.145-15.927-15.928c0-8.782 7.145-15.927 15.927-15.927zm64.599 169.5h-49.674l-.403-79.999h-55.619c-6.232-17.979-23.326-30.927-43.399-30.927-25.325 0-45.928 20.603-45.928 45.927s20.603 45.927 45.928 45.927c20.072 0 37.166-12.949 43.399-30.927h25.769l.252 49.999h-142.325v-153.325c34.868-6.235 62.44-33.807 68.675-68.675h73.727v25.029c-17.979 6.232-30.927 23.326-30.927 43.399 0 25.325 20.603 45.928 45.927 45.928s45.927-20.603 45.927-45.928c0-20.072-12.949-37.167-30.927-43.399v-25.029h49.598zm-133.167-64.999c0 8.782-7.145 15.927-15.927 15.927-8.783 0-15.928-7.145-15.928-15.927s7.145-15.927 15.928-15.927c8.782 0 15.927 7.145 15.927 15.927z"/></svg>
